<?xml version="1.0" standalone="no"?>
<!DOCTYPE svg PUBLIC "-//W3C//DTD SVG 20010904//EN"
 "http://www.w3.org/TR/2001/REC-SVG-20010904/DTD/svg10.dtd">
<svg version="1.0" xmlns="http://www.w3.org/2000/svg"
 width="40px" height="53.17px" viewBox="0 0 351.201191 466.862748"
 preserveAspectRatio="xMidYMid meet">
<metadata>
Created by potrace 1.12, written by Peter Selinger 2001-2015
</metadata>
<g transform="translate(-121.091385,515.421576) scale(0.100000,-0.100000)"
fill="#06b6d4" stroke="none">
<path d="M3547 5141 c-219 -48 -428 -202 -550 -406 -58 -98 -115 -243 -145
-375 -18 -76 -25 -278 -13 -387 18 -173 55 -303 123 -440 34 -68 63 -123 64
-123 2 0 22 13 46 29 24 16 54 32 68 36 l25 7 -21 -23 c-48 -55 -60 -66 -78
-72 -11 -5 -16 -13 -12 -23 3 -9 -15 -55 -43 -107 -61 -115 -97 -214 -116
-324 -19 -108 -20 -259 -1 -294 7 -14 17 -48 21 -75 13 -88 36 -167 82 -276
l46 -107 -31 -35 c-47 -54 -129 -231 -141 -305 -19 -117 27 -267 118 -387 l39
-52 -44 -53 c-25 -30 -58 -78 -75 -106 l-30 -53 -61 43 c-73 51 -158 125 -158
138 0 21 91 106 149 139 53 31 61 38 56 60 -2 14 -7 52 -11 84 l-7 60 -18 -36
c-22 -43 -104 -98 -147 -98 -64 0 -124 44 -162 119 -41 83 -10 181 74 232 63
38 172 10 218 -56 23 -34 23 -34 35 -12 35 63 1 130 -97 195 -36 23 -68 50
-72 60 -18 47 -10 60 82 122 87 60 150 132 150 169 0 9 -9 52 -18 95 -20 88
-39 111 -105 125 l-36 9 22 -29 c15 -21 22 -48 25 -94 l4 -64 -49 -49 c-57
-57 -98 -70 -146 -46 -92 47 -131 157 -87 243 l19 39 -42 -10 c-84 -18 -127
-39 -135 -67 -12 -45 -5 -124 16 -171 23 -52 45 -74 144 -145 46 -32 80 -65
93 -89 l20 -38 -40 -35 c-22 -19 -56 -43 -75 -54 -77 -45 -143 -155 -148 -249
-7 -124 26 -190 130 -260 98 -65 113 -83 113 -131 0 -34 -6 -46 -35 -71 -78
-67 -101 -92 -115 -118 -13 -26 -13 -30 4 -52 l19 -23 34 19 c18 10 52 35 76
54 l44 35 46 -33 c26 -18 68 -48 94 -67 26 -18 52 -33 58 -33 5 0 10 -6 10
-14 0 -10 11 -12 48 -9 78 9 91 20 151 131 l56 102 20 -24 c11 -14 29 -42 40
-63 11 -21 37 -62 58 -91 32 -44 42 -52 70 -52 57 0 70 18 65 88 -4 52 -9 68
-34 95 -34 37 -94 122 -94 133 0 4 18 23 40 42 81 68 104 156 98 373 -3 131
-6 149 -30 201 -22 47 -64 114 -122 193 -7 9 1 30 27 69 68 102 104 196 127
328 34 194 27 285 -40 490 -24 74 -49 121 -114 213 -7 9 1 29 25 67 20 29 57
89 84 133 26 44 50 82 51 84 2 2 15 -1 29 -7 19 -9 24 -9 22 1 -1 6 -5 15 -10
18 -4 3 1 14 11 25 10 11 17 25 14 32 -2 7 2 19 8 27 18 22 -1 19 -71 -10 -34
-15 -69 -23 -80 -20 -11 4 -19 2 -19 -5 0 -12 -95 -138 -115 -152 -17 -13 -20
-10 -52 40 -63 98 -95 186 -129 357 -24 116 -26 145 -21 270 11 253 78 433
234 623 40 49 175 159 213 174 14 5 38 16 55 24 83 39 372 60 465 34 l35 -10
-50 49 c-91 87 -215 115 -368 82z m-380 -2013 c16 -35 42 -112 57 -172 25 -98
27 -123 24 -235 -4 -109 -8 -138 -36 -216 -49 -142 -77 -208 -87 -212 -12 -4
-48 74 -81 176 -56 170 -55 339 6 561 17 63 69 172 79 166 5 -3 22 -34 38 -68z
m1 -1095 c63 -102 87 -178 84 -268 -3 -65 -37 -168 -69 -205 -48 -57 -95 -32
-144 75 -53 117 -50 241 8 345 26 46 71 100 84 100 4 0 20 -21 37 -47z"/>
<path d="M4492 2943 c77 -273 92 -492 52 -763 -13 -88 -51 -236 -82 -315 -30
-78 -145 -284 -195 -350 -68 -89 -222 -247 -280 -285 -21 -14 -47 -33 -59 -42
-26 -22 -248 -130 -308 -150 -148 -51 -363 -88 -504 -88 -131 0 -321 27 -431
62 -218 69 -399 180 -560 342 -96 97 -233 281 -250 336 -4 14 -30 71 -57 126
-27 56 -55 134 -63 173 -55 260 -120 348 -265 359 -109 8 -209 -35 -241 -103
-6 -11 -16 -31 -24 -45 -17 -29 -19 -124 -4 -190 5 -25 15 -70 20 -100 16 -89
98 -319 141 -400 23 -41 54 -100 70 -130 71 -134 245 -336 400 -466 231 -193
511 -329 818 -398 209 -47 552 -38 760 20 114 32 247 83 378 145 142 67 371
242 479 366 32 37 65 74 73 83 127 135 274 443 326 683 30 142 44 332 33 465
-17 209 -50 341 -135 535 -35 82 -99 197 -109 197 -1 0 6 -30 17 -67z"/>
</g>
</svg>
